<svg version="1.1" id="Layer_1" xmlns="http://www.w3.org/2000/svg" x="0" y="0" viewBox="0 0 500 500" xml:space="preserve"><style>.st1{fill:#fddf7f}</style><path d="M131.8 473.322l48.112-26.751L206.085 495l43.02-147.419c-27.259-.165-52.736-7.842-74.461-21.075L131.8 473.322zm119.095-125.741L293.915 495l26.173-48.429 48.112 26.751-42.845-146.816c-21.724 13.233-47.201 20.91-74.46 21.075z" fill="#83e1e5"/><circle class="st1" cx="250" cy="202.537" r="145.055"/><circle cx="250" cy="202.537" r="113.528" fill="#ecf4f7"/><path class="st1" d="M254.161 193.87h-8.322a2.686 2.686 0 01-2.683-2.684v-9.837a2.686 2.686 0 012.683-2.684h19.668a8.665 8.665 0 008.664-8.667 8.665 8.665 0 00-8.664-8.667h-5.426v-8.81a8.665 8.665 0 00-8.664-8.667 8.665 8.665 0 00-8.664 8.667v9.049c-9.574 1.488-16.926 9.791-16.926 19.779v9.837c0 11.038 8.977 20.018 20.011 20.018h8.323a2.686 2.686 0 012.683 2.684v9.837a2.686 2.686 0 01-2.683 2.684h-19.668c-4.785 0-8.664 3.88-8.664 8.667s3.879 8.667 8.664 8.667h8.262v8.81a8.665 8.665 0 008.664 8.667 8.665 8.665 0 008.664-8.667v-9.705c8.152-2.531 14.089-10.146 14.089-19.123v-9.837c-.001-11.038-8.978-20.018-20.011-20.018z"/><path d="M250 321.065c65.356 0 118.528-53.171 118.528-118.528S315.356 84.009 250 84.009 131.472 137.18 131.472 202.537 184.644 321.065 250 321.065zm0-227.056c59.843 0 108.528 48.686 108.528 108.528S309.843 311.065 250 311.065 141.472 262.38 141.472 202.537 190.157 94.009 250 94.009zm-98.353 1.792a5.001 5.001 0 01-.046 7.071 140.141 140.141 0 00-5.022 5.22 4.986 4.986 0 01-3.691 1.626 5 5 0 01-3.689-8.374 152.098 152.098 0 015.378-5.59 5 5 0 017.07.047zm179.549 232.871c41.398-26.742 68.859-73.29 68.859-126.135 0-82.741-67.314-150.055-150.056-150.055-30.075 0-59.092 8.865-83.913 25.638a5 5 0 105.599 8.285C194.848 70.754 221.928 62.482 250 62.482c77.227 0 140.056 62.829 140.056 140.055 0 61.232-39.502 113.405-94.358 132.393-.576.199-1.154.395-1.733.586a135.295 135.295 0 01-5.714 1.767l-.021.006c-1.424.403-2.855.779-4.292 1.137-.191.048-.383.094-.574.14a140.432 140.432 0 01-27.642 3.9l-.216.008c-1.545.06-3.093.097-4.642.106l-.014.001c-.284.002-.566.011-.85.011s-.566-.009-.85-.011l-.014-.001c-1.55-.009-3.097-.046-4.642-.106l-.216-.008a140.432 140.432 0 01-27.642-3.9l-.574-.14a137.499 137.499 0 01-4.292-1.137l-.021-.006a139.494 139.494 0 01-5.714-1.767 153.41 153.41 0 01-1.733-.586c-54.856-18.988-94.358-71.161-94.358-132.393 0-27.27 7.841-53.7 22.675-76.433a5 5 0 00-8.375-5.465c-15.897 24.363-24.3 52.683-24.3 81.898 0 52.845 27.461 99.393 68.859 126.135L127 471.921a5.001 5.001 0 007.23 5.771l43.689-24.292 23.768 43.978a4.999 4.999 0 009.197-.976L250 362.364l39.115 134.037a5 5 0 009.197.976l23.768-43.978 43.689 24.292a5 5 0 007.23-5.771l-41.803-143.248zM204.695 481.913l-20.385-37.72a4.999 4.999 0 00-6.828-1.992l-37.473 20.835 37.647-129.006a149.159 149.159 0 0020.751 9.424l.165.06c1.061.387 2.125.765 3.195 1.128.323.11.649.213.973.321.848.281 1.696.564 2.549.829a148.098 148.098 0 0011.873 3.173l.145.032c1.332.297 2.67.575 4.015.836l.099.019a149.753 149.753 0 0021.066 2.554l-37.792 129.507zM322.518 442.2a5.003 5.003 0 00-6.828 1.992l-20.385 37.72-37.794-129.508a149.753 149.753 0 0021.066-2.554l.099-.019c1.344-.261 2.683-.539 4.015-.836l.145-.032c1.345-.302 2.685-.618 4.017-.956l.078-.019a149.78 149.78 0 007.778-2.198c.853-.266 1.701-.548 2.549-.829.324-.108.65-.211.973-.321 1.07-.362 2.134-.741 3.195-1.128l.165-.06a149.042 149.042 0 0020.751-9.424l37.647 129.006-37.471-20.834zM215.829 235.077c0 9.718 7.464 17.725 16.958 18.59.578 9.777 8.713 17.554 18.631 17.554 10.291 0 18.664-8.374 18.664-18.667v-3.365c8.65-5.38 14.089-14.876 14.089-25.463v-9.837c0-10.879-5.817-20.426-14.503-25.691 8.295-1.896 14.503-9.336 14.503-18.199 0-8.719-6.007-16.06-14.099-18.102-.331-10.005-8.572-18.042-18.654-18.042-10.291 0-18.664 8.374-18.664 18.667v1.819a30.133 30.133 0 00-9.618 7.392 30.008 30.008 0 00-7.308 19.617v9.837c0 10.879 5.817 20.426 14.503 25.691-8.295 1.896-14.502 9.336-14.502 18.199zm18.663-8.667h19.668a2.686 2.686 0 002.683-2.684v-9.837a2.686 2.686 0 00-2.683-2.684h-8.321c-11.033 0-20.01-8.98-20.01-20.018v-9.837c0-9.989 7.352-18.291 16.926-19.779v-9.049a8.665 8.665 0 018.664-8.667 8.665 8.665 0 018.664 8.667v8.81h5.426a8.666 8.666 0 018.664 8.667 8.665 8.665 0 01-8.664 8.667h-19.668a2.686 2.686 0 00-2.683 2.684v9.837a2.686 2.686 0 002.683 2.684h8.32c11.033 0 20.01 8.98 20.01 20.018v9.837c0 8.977-5.937 16.591-14.089 19.123v9.705a8.665 8.665 0 01-8.664 8.667 8.666 8.666 0 01-8.664-8.667v-8.81h-8.262a8.666 8.666 0 01-8.664-8.667c.001-4.787 3.88-8.667 8.664-8.667zM130.7 366.196a199.094 199.094 0 01-3.949-2.962 5 5 0 016.1-7.925c1.24.955 2.49 1.893 3.75 2.813a5 5 0 01-5.901 8.074zm321.837-163.608c0 54.086-21.063 104.935-59.308 143.18a204.034 204.034 0 01-30.673 25.22 4.993 4.993 0 01-6.936-1.373 5 5 0 011.372-6.937 193.996 193.996 0 0029.167-23.982c36.355-36.356 56.378-84.693 56.378-136.108 0-47.052-16.779-91.52-47.488-126.593l.883 30.802a5 5 0 01-9.995.286l-1.26-43.975a4.999 4.999 0 011.463-3.679l.01-.008.01-.013c1.049-1.049 2.447-1.515 3.821-1.437l43.812 1.255a4.999 4.999 0 11-.288 9.996l-31.905-.913c32.928 37.065 50.937 84.284 50.937 134.279zM352.905 33.752a5.001 5.001 0 016.913-1.486c1.439.93 2.87 1.879 4.292 2.85a5 5 0 11-5.636 8.259 198.866 198.866 0 00-4.081-2.71 5 5 0 01-1.488-6.913zm-24.858-12.834a5.003 5.003 0 016.631-2.456 203.253 203.253 0 016.789 3.275 5.001 5.001 0 01-4.514 8.924 191.83 191.83 0 00-6.451-3.112 5 5 0 01-2.455-6.631zm-213.011 323.04c-.023.067-.034.138-.06.204a4.965 4.965 0 01-1.876 2.307c-.174.115-.36.199-.544.29-.108.054-.208.122-.319.168-.212.087-.432.141-.651.198-.095.025-.185.064-.282.084-.32.063-.644.096-.969.096-.048 0-.096 0-.144-.002l-43.975-1.259a4.999 4.999 0 01-4.854-5.141 4.993 4.993 0 015.142-4.855l31.934.915c-12.356-13.913-22.681-29.354-30.766-46.046C30.111 213.365 45.835 120.301 106.8 59.336 159.525 6.61 236.703-12.872 308.214 8.489a5 5 0 01-2.862 9.582c-67.984-20.31-141.357-1.788-191.482 48.337-57.956 57.956-72.905 146.427-37.198 220.148 7.473 15.428 16.965 29.733 28.287 42.676l-.881-30.76a5 5 0 014.854-5.141c2.751-.087 5.062 2.094 5.142 4.855l1.26 43.975c.001.023-.005.046-.005.069.003.215-.023.429-.048.643-.013.114-.012.229-.033.341a5.033 5.033 0 01-.212.744z" fill="#1c1d21"/></svg>