<svg version="1.1" id="Layer_1" xmlns="http://www.w3.org/2000/svg" x="0" y="0" viewBox="0 0 500 500" xml:space="preserve"><style>.st1{fill:#fddf7f}</style><path fill="#aab1ba" d="M118.419 176.457L250 65.467l131.581 110.99L250 287.421z"/><path class="st1" d="M422.3 141.898L290.72 30.908 250 65.467l131.581 110.99zm-344.6 0l131.58-110.99L250 65.467l-131.581 110.99zm368.196 138.041c-7.065 0-12.791 5.727-12.791 12.791v75.687h25.583V292.73c-.001-7.064-5.728-12.791-12.792-12.791z"/><path class="st1" d="M420.398 279.939c-7.065 0-12.792 5.727-12.792 12.791v95.861l25.583-2.091v-93.77c.001-7.064-5.726-12.791-12.791-12.791z"/><path class="st1" d="M410.506 495v-25.909a37.555 37.555 0 0111-26.556l51.765-51.765a37.557 37.557 0 0011-26.556V292.73c0-7.064-5.727-12.791-12.791-12.791s-12.792 5.727-12.792 12.791V330c0 11.48-5.25 22.329-14.253 29.452l-73.412 58.085a37.557 37.557 0 00-14.253 29.32L356.601 495M54.104 279.939c7.065 0 12.791 5.727 12.791 12.791v75.687H41.313V292.73c0-7.064 5.727-12.791 12.791-12.791z"/><path class="st1" d="M79.602 279.939c7.065 0 12.791 5.727 12.791 12.791v95.861L66.81 386.5v-93.77c0-7.064 5.727-12.791 12.792-12.791z"/><path class="st1" d="M89.494 495v-25.909a37.555 37.555 0 00-11-26.556L26.73 390.77a37.557 37.557 0 01-11-26.556V292.73c0-7.064 5.727-12.791 12.791-12.791s12.792 5.727 12.792 12.791V330c0 11.48 5.25 22.329 14.253 29.452l73.412 58.085a37.557 37.557 0 0114.253 29.32l.168 48.143m-24.98-318.569v145.524l131.582 110.989 131.58-110.989V176.431L250 287.421z"/><path class="st1" d="M77.7 210.991l131.58 110.99 40.72-34.56-131.581-110.99zm344.6 0l-131.58 110.99-40.72-34.56 131.581-110.99z"/><circle cx="250" cy="83.109" r="78.109" fill="#83e1e5"/><path d="M471.479 274.939c-5.021 0-9.553 2.099-12.792 5.456-3.238-3.356-7.771-5.456-12.792-5.456-4.998 0-9.513 2.079-12.749 5.408-3.235-3.33-7.751-5.408-12.749-5.408-9.81 0-17.792 7.981-17.792 17.791v93.442l-34.686 27.445c-10.219 8.084-16.105 20.193-16.151 33.223l-.169 48.143a5 5 0 004.982 5.018h.018a5.001 5.001 0 005-4.982l.169-48.143c.035-9.968 4.538-19.231 12.355-25.416l73.411-58.085c10.264-8.12 16.15-20.284 16.15-33.373V292.73c0-4.296 3.495-7.791 7.792-7.791s7.792 3.495 7.792 7.791v71.483c0 8.696-3.387 16.872-9.536 23.021l-51.765 51.764c-8.038 8.038-12.464 18.726-12.464 30.092V495a5 5 0 1010 0v-25.909c0-8.695 3.386-16.871 9.535-23.021l51.765-51.764c8.038-8.038 12.464-18.725 12.464-30.092V292.73c.003-9.809-7.978-17.791-17.788-17.791zm-58.872 17.791c0-4.296 3.495-7.791 7.792-7.791 4.019 0 7.335 3.059 7.747 6.969-.013.274-.042.544-.042.822v73.268l-15.497 12.262v-85.53zm28.725 62.802l-3.142 2.486V292.73c0-.277-.029-.547-.042-.822.412-3.911 3.728-6.969 7.747-6.969 4.296 0 7.792 3.495 7.792 7.791v37.271c0 10.013-4.503 19.318-12.355 25.531zM132.08 413.617l-34.687-27.445V292.73c0-9.81-7.981-17.791-17.792-17.791-4.998 0-9.513 2.079-12.749 5.408-3.235-3.33-7.751-5.408-12.749-5.408-5.021 0-9.554 2.099-12.792 5.456-3.238-3.356-7.771-5.456-12.792-5.456-9.81 0-17.792 7.981-17.792 17.791v71.483c0 11.367 4.427 22.054 12.464 30.092l51.765 51.764c6.149 6.15 9.535 14.326 9.535 23.021V495a5 5 0 1010 0v-25.909c0-11.366-4.426-22.054-12.464-30.092l-51.765-51.764c-6.149-6.149-9.536-14.325-9.536-23.021V292.73c0-4.296 3.495-7.791 7.792-7.791s7.792 3.495 7.792 7.791v37.271c0 13.089 5.887 25.253 16.15 33.373l73.412 58.085c7.817 6.185 12.32 15.448 12.355 25.416l.169 48.143a5 5 0 005 4.982h.018a5 5 0 004.982-5.018l-.169-48.143c-.043-13.028-5.929-25.138-16.147-33.222zM79.602 284.939c4.296 0 7.792 3.495 7.792 7.791v85.529l-15.497-12.262V292.73c0-.277-.029-.547-.042-.822.411-3.91 3.728-6.969 7.747-6.969zm-33.289 45.062V292.73c0-4.296 3.495-7.791 7.792-7.791 4.019 0 7.335 3.059 7.747 6.969-.013.274-.042.544-.042.822v65.288l-3.142-2.486c-7.852-6.213-12.355-15.518-12.355-25.531zm205.511 107.588c.122-.048.237-.106.354-.164.159-.078.316-.159.468-.254a4.99 4.99 0 00.338-.237c.078-.059.164-.104.239-.168l131.581-110.989a5.002 5.002 0 001.776-3.822v-74.293l38.943-32.849a4.997 4.997 0 00.011-7.634l-36.212-30.735 36.212-30.734a5.001 5.001 0 00-.011-7.634l-80.557-67.951a5 5 0 00-6.447 7.645l76.04 64.141-32.989 27.998-42.614-35.945a5.001 5.001 0 00-6.447 7.645l41.3 34.837L250 280.879 126.19 176.444l41.3-34.837a5 5 0 00-6.447-7.645l-42.614 35.945-32.989-27.998 76.04-64.141a5 5 0 00-6.447-7.645l-80.557 67.951a4.997 4.997 0 00-.011 7.634l36.212 30.734-36.212 30.735a5.001 5.001 0 00.011 7.634l38.943 32.849v74.292a5 5 0 001.776 3.822l131.581 110.989c.074.062.157.106.233.163.114.085.227.168.348.244.149.093.302.173.458.249.12.059.238.119.363.168.181.071.365.123.552.171.112.029.22.067.336.088.308.059.619.094.931.094H250c.313 0 .626-.036.935-.094.113-.021.219-.058.328-.087a4.02 4.02 0 00.561-.17zm124.757-117.957L255 422.186V298.223l32.484 27.57a4.995 4.995 0 006.459.01l82.638-69.706v63.535zm4.99-136.652l32.989 27.999L290.73 315.43l-32.989-27.998 123.83-104.452zm-263.142 0l123.83 104.452-32.989 27.998L85.44 210.979l32.989-27.999zm4.99 73.118l82.637 69.705a4.991 4.991 0 003.224 1.178 4.989 4.989 0 003.235-1.188L245 298.223v123.963L123.419 319.632v-63.534zm43.472-172.989c0-23.058 9.223-44.49 25.969-60.351a5 5 0 116.876 7.259C185.004 43.97 176.89 62.825 176.89 83.108c0 40.313 32.797 73.109 73.109 73.109s73.109-32.797 73.109-73.109S290.313 10 250 10a73.58 73.58 0 00-16.25 1.811 4.996 4.996 0 01-5.981-3.771 4.999 4.999 0 013.771-5.981A83.53 83.53 0 01250 0c45.827 0 83.109 37.283 83.109 83.109s-37.282 83.11-83.109 83.11-83.109-37.283-83.109-83.11zm42.017-66.63a4.999 4.999 0 012.063-6.763 83.432 83.432 0 013.972-1.981 5.001 5.001 0 014.221 9.067 72.278 72.278 0 00-3.492 1.741 4.998 4.998 0 01-6.764-2.064zm72.185 107.511c-7.324 5.65-15.848 9.128-24.795 10.228l3.384 3.346a5 5 0 11-7.03 7.111l-12.046-11.909c-.074-.073-.126-.159-.195-.235a5.034 5.034 0 01-.343-.415 4.955 4.955 0 01-.252-.4 4.743 4.743 0 01-.231-.434 5.204 5.204 0 01-.174-.449 5.002 5.002 0 01-.141-.466 4.823 4.823 0 01-.083-.478 5.057 5.057 0 01-.049-.478 4.912 4.912 0 01.015-.529c.007-.104-.005-.206.009-.312.006-.047.024-.089.032-.136.028-.179.076-.352.123-.528.04-.146.074-.293.126-.433.056-.151.131-.295.202-.442.074-.151.143-.303.231-.445.075-.122.167-.234.253-.351.113-.151.225-.302.354-.439.03-.032.051-.07.082-.102l11.908-12.046a5.001 5.001 0 017.112 7.031l-3.406 3.445c6.78-1.025 13.227-3.75 18.805-8.053 8.652-6.675 14.188-16.318 15.587-27.155 1.399-10.838-1.505-21.571-8.179-30.224s-16.318-14.188-27.155-15.587c-22.365-2.892-42.922 12.964-45.81 35.334a40.859 40.859 0 0019.955 40.587 4.999 4.999 0 11-5.043 8.635 50.84 50.84 0 01-24.83-50.502c3.594-27.841 29.175-47.563 57.008-43.972 13.486 1.741 25.488 8.63 33.793 19.397s11.92 24.124 10.179 37.611c-1.74 13.489-8.629 25.49-19.396 33.795z" fill="#1c1d21"/></svg>