<svg version="1.1" id="Layer_1" xmlns="http://www.w3.org/2000/svg" x="0" y="0" viewBox="0 0 500 500" xml:space="preserve"><style>.st1{fill:#fddf7f}</style><path d="M149.393 351.111V111.215c0-13.407 10.868-24.275 24.275-24.275h152.726c13.407 0 24.275 10.868 24.275 24.275v239.896c0 13.407-10.868 24.275-24.275 24.275H173.668c-13.407 0-24.275-10.868-24.275-24.275z" fill="#83e1e5"/><path d="M318.93 222.295c0-38.052-30.847-68.899-68.899-68.899s-68.899 30.847-68.899 68.899c0 32.909 23.08 60.412 53.932 67.249a15.232 15.232 0 00-.094 1.65v34.501c0 8.319 6.744 15.062 15.062 15.062 8.319 0 15.062-6.744 15.062-15.062v-34.501c0-.558-.035-1.107-.094-1.65 30.85-6.838 53.93-34.34 53.93-67.249z" fill="#aab1ba"/><path d="M195.129 88.876c0-.65-.02-1.295-.049-1.937h-21.412c-13.407 0-24.276 10.868-24.276 24.275v19.526c1.22.107 2.453.172 3.701.172 23.216 0 42.036-18.82 42.036-42.036zm151.839 42.036c1.248 0 2.48-.065 3.701-.172v-19.526c0-13.407-10.869-24.275-24.276-24.275h-21.412a42.948 42.948 0 00-.049 1.937c0 23.216 18.821 42.036 42.036 42.036zM153.094 331.413c-1.248 0-2.481.065-3.701.172v19.526c0 13.407 10.869 24.275 24.276 24.275h21.412c.029-.643.049-1.288.049-1.937-.001-23.216-18.821-42.036-42.036-42.036zm197.575 19.698v-19.526a42.314 42.314 0 00-3.701-.172c-23.216 0-42.036 18.82-42.036 42.036 0 .65.02 1.295.049 1.937h21.412c13.408 0 24.276-10.868 24.276-24.275z" fill="#ecf4f7"/><path class="st1" d="M304.98 86.939h-25.853V59.981c0-16.061-13.066-29.128-29.127-29.128s-29.128 13.067-29.128 29.128v26.958H195.02V59.981C195.02 29.664 219.684 5 249.999 5c30.317 0 54.981 24.664 54.981 54.981v26.958zm58.911 184.273c-7.351 0-13.31 5.959-13.31 13.31v78.758h26.621v-78.758c-.001-7.35-5.96-13.31-13.311-13.31z"/><path class="st1" d="M327.065 495v-26.961a39.08 39.08 0 0111.446-27.634l53.865-53.865a39.08 39.08 0 0011.446-27.634v-74.384c0-7.351-5.959-13.31-13.31-13.31-7.351 0-13.311 5.959-13.311 13.31v38.783a39.08 39.08 0 01-14.831 30.647l-76.39 60.442a39.081 39.081 0 00-14.831 30.51L270.973 495M136.109 271.212c7.351 0 13.31 5.959 13.31 13.31v78.758h-26.621v-78.758c.001-7.35 5.96-13.31 13.311-13.31z"/><path class="st1" d="M172.935 495v-26.961a39.08 39.08 0 00-11.446-27.634l-53.865-53.865a39.08 39.08 0 01-11.446-27.634v-74.384c0-7.351 5.959-13.31 13.31-13.31 7.351 0 13.311 5.959 13.311 13.31v38.783a39.08 39.08 0 0014.831 30.647l76.39 60.442a39.081 39.081 0 0114.831 30.51l.176 50.096m23.868-278.671h-5.728a1.85 1.85 0 01-1.847-1.848v-6.772a1.85 1.85 0 011.847-1.848h13.54a5.965 5.965 0 005.964-5.966 5.965 5.965 0 00-5.964-5.966h-3.735v-6.065a5.965 5.965 0 10-11.928 0v6.229c-6.591 1.025-11.652 6.74-11.652 13.616v6.772c0 7.599 6.18 13.781 13.776 13.781h5.728a1.85 1.85 0 011.847 1.848v6.772a1.85 1.85 0 01-1.847 1.848h-13.54a5.965 5.965 0 00-5.964 5.966 5.965 5.965 0 005.964 5.966h5.688v6.065a5.965 5.965 0 1011.928 0v-6.681c5.612-1.743 9.699-6.985 9.699-13.164v-6.772c0-7.6-6.18-13.781-13.776-13.781z"/><path d="M390.512 266.212c-5.245 0-9.969 2.229-13.311 5.775-3.341-3.546-8.065-5.775-13.311-5.775-2.958 0-5.746.721-8.222 1.972V111.215c0-16.143-13.133-29.275-29.275-29.275H309.98V59.981C309.98 26.907 283.073 0 249.999 0c-33.073 0-59.979 26.907-59.979 59.981v21.958h-16.352c-16.143 0-29.275 13.133-29.275 29.275v42.181a5 5 0 1010 0v-17.517c24.313-.664 44.069-19.857 45.626-43.94h100.025c1.557 24.083 21.314 43.275 45.626 43.94v146.89a18.489 18.489 0 00-.089 1.754v41.925c-24.271.709-43.982 19.884-45.537 43.938H200.018c-1.556-24.075-21.298-43.262-45.598-43.94v-41.924c0-.182-.022-.359-.027-.54v-88.65a5 5 0 10-10 0v72.881a18.181 18.181 0 00-8.283-2.002c-5.245 0-9.969 2.229-13.311 5.775-3.341-3.546-8.065-5.775-13.311-5.775-10.097 0-18.311 8.214-18.311 18.311v74.384c0 11.774 4.585 22.844 12.911 31.169l53.865 53.865c6.437 6.437 9.981 14.995 9.981 24.098V495a5 5 0 1010 0v-26.96c0-11.774-4.585-22.844-12.911-31.169l-53.865-53.865c-6.437-6.437-9.981-14.995-9.981-24.098v-74.384c0-4.583 3.729-8.311 8.311-8.311s8.311 3.728 8.311 8.311v38.782c0 13.556 6.098 26.156 16.729 34.568l76.391 60.442c8.183 6.475 12.896 16.172 12.934 26.606l.176 50.096a5 5 0 005 4.982h.018a5 5 0 004.982-5.018l-.176-50.096c-.048-13.496-6.145-26.039-16.729-34.413l-38.027-30.087h141.807l-38.027 30.087c-10.584 8.374-16.681 20.917-16.729 34.413l-.176 50.096a5 5 0 004.982 5.018h.018a5 5 0 005-4.982l.176-50.096c.037-10.434 4.751-20.132 12.934-26.606l76.391-60.442c10.631-8.412 16.729-21.012 16.729-34.568v-38.783c0-4.583 3.729-8.311 8.311-8.311s8.311 3.728 8.311 8.311v74.384c0 9.103-3.545 17.661-9.981 24.098l-53.865 53.865c-8.326 8.326-12.911 19.395-12.911 31.169V495a5 5 0 1010 0v-26.96c0-9.103 3.545-17.662 9.981-24.098l53.865-53.865c8.326-8.325 12.911-19.395 12.911-31.169v-74.384c-.002-10.098-8.216-18.312-18.312-18.312zM249.999 10c27.56 0 49.981 22.421 49.981 49.981v21.958h-15.853V59.981c0-18.818-15.31-34.128-34.127-34.128-18.818 0-34.129 15.31-34.129 34.128v21.958H200.02V59.981c0-27.56 22.42-49.981 49.979-49.981zm24.129 71.939h-48.256V59.981c0-13.304 10.824-24.128 24.129-24.128 13.304 0 24.127 10.824 24.127 24.128v21.958zM154.393 125.89v-14.675c0-10.628 8.646-19.275 19.275-19.275h16.336c-1.527 18.568-16.812 33.298-35.611 33.95zm155.665-33.951h16.336c10.629 0 19.275 8.647 19.275 19.275v14.675c-18.8-.651-34.084-15.381-35.611-33.95zM127.799 323.306v-38.783c0-4.583 3.729-8.311 8.311-8.311 4.4 0 8.003 3.44 8.283 7.771v67.128c0 .362.014.72.027 1.078v.76l-3.688-2.918c-8.219-6.503-12.933-16.244-12.933-26.725zm45.869 47.08c-10.447 0-18.958-8.358-19.248-18.735v-15.214c18.787.665 34.057 15.389 35.584 33.949h-16.336zm171.912-33.945v16.425c-.89 9.808-9.15 17.521-19.187 17.521h-16.336c1.526-18.54 16.764-33.251 35.523-33.946zm13.688 13.591l-3.661 2.896c.037-.602.062-1.206.062-1.817v-67.736c.562-4.04 4.03-7.162 8.222-7.162 4.582 0 8.311 3.728 8.311 8.311v38.783c-.001 10.48-4.715 20.221-12.934 26.725zm-108.261-77.339c8.803 0 15.964-7.162 15.964-15.966v-.66c5.998-4.381 9.699-11.411 9.699-19.185v-6.772c0-6.624-2.721-12.623-7.104-16.939 4.281-2.867 7.104-7.748 7.104-13.276 0-6.672-4.113-12.402-9.937-14.785-1.308-7.496-7.863-13.213-15.727-13.213-8.606 0-15.644 6.847-15.954 15.381-7.008 4.205-11.662 11.911-11.662 20.431v6.772c0 6.624 2.721 12.623 7.104 16.939-4.281 2.867-7.104 7.748-7.104 13.276 0 7.445 5.121 13.716 12.026 15.475 1.579 7.154 7.97 12.522 15.591 12.522zm-17.616-27.998a5.965 5.965 0 015.964-5.966h13.54a1.85 1.85 0 001.847-1.848v-6.772a1.85 1.85 0 00-1.847-1.848h-5.728c-7.596 0-13.775-6.182-13.775-13.781v-6.772c0-6.876 5.061-12.592 11.652-13.616v-6.229a5.965 5.965 0 1111.928 0v6.065h3.735c3.294 0 5.964 2.671 5.964 5.966s-2.67 5.966-5.964 5.966h-13.54a1.85 1.85 0 00-1.847 1.848v6.772a1.85 1.85 0 001.847 1.848h5.728c7.596 0 13.775 6.182 13.775 13.781v6.772c0 6.18-4.087 11.422-9.699 13.164v6.681a5.965 5.965 0 11-11.928 0v-6.065h-5.688a5.964 5.964 0 01-5.964-5.966zM144.393 178v-5.085a5 5 0 1110 0V178a5 5 0 11-10 0zm105.638 167.757c11.063 0 20.063-9 20.063-20.062v-32.28c14.568-4.113 27.702-12.731 37.32-24.565 10.65-13.104 16.516-29.638 16.516-46.555 0-40.748-33.15-73.899-73.898-73.899s-73.899 33.151-73.899 73.899c0 16.917 5.865 33.451 16.517 46.555 9.618 11.834 22.752 20.452 37.32 24.565v32.28c-.001 11.062 8.999 20.062 20.061 20.062zm-63.899-123.462c0-35.234 28.665-63.899 63.899-63.899 35.233 0 63.898 28.665 63.898 63.899 0 29.716-21.033 55.945-50.013 62.368a5 5 0 00-3.888 5.427c.043.397.064.758.064 1.104v34.501c0 5.548-4.514 10.062-10.063 10.062s-10.063-4.514-10.063-10.062v-34.501c0-.339.021-.703.065-1.113a4.998 4.998 0 00-3.889-5.418c-28.976-6.423-50.01-32.652-50.01-62.368z" fill="#1c1d21"/></svg>