<svg version="1.1" id="Layer_1" xmlns="http://www.w3.org/2000/svg" x="0" y="0" viewBox="0 0 500 500" xml:space="preserve"><style>.st1{fill:#fddf7f}.st2{fill:#83e1e5}</style><path class="st2" d="M291.84 152.297h-83.68v-40.824c0-39.205 14.726-76.98 41.259-105.841L250 5l.581.632a156.383 156.383 0 0141.259 105.841v40.824z"/><path class="st1" d="M270.608 400.006c12.348 16.127 14.242 37.084 4.957 54.846l-18.867 36.092c-2.827 5.408-10.568 5.408-13.395 0l-18.867-36.092c-9.285-17.762-7.391-38.718 4.957-54.846"/><path class="st2" d="M208.16 337.365v50.163c0 6.891 5.587 12.478 12.478 12.478h58.724c6.891 0 12.478-5.587 12.478-12.478v-50.163h-83.68zm-54.65 61.29v35.935l54.65-54.65v-42.574h-20.067l-15.699 15.699a64.474 64.474 0 00-18.884 45.59zm192.98 0v35.935l-54.65-54.65v-42.574h20.067l15.699 15.699a64.474 64.474 0 0118.884 45.59z"/><path class="st1" d="M355.217 337.365H144.783c-8.108 0-14.681-6.573-14.681-14.681V166.979c0-8.108 6.573-14.681 14.681-14.681h210.435c8.108 0 14.682 6.573 14.682 14.681v155.705c-.001 8.108-6.574 14.681-14.683 14.681zM250.581 5.632L250 5l-.581.632a156.32 156.32 0 00-28.39 43.742A48.711 48.711 0 00250 58.876a48.711 48.711 0 0028.971-9.502 156.342 156.342 0 00-28.39-43.742z"/><circle cx="250" cy="104.908" r="20.065" fill="#ecf4f7"/><path d="M269.509 215.019h-39.018c-8.018 0-14.518-6.5-14.518-14.518s6.5-14.518 14.518-14.518h39.018c8.018 0 14.518 6.5 14.518 14.518s-6.5 14.518-14.518 14.518z" fill="#aab1ba"/><path class="st2" d="M236.542 152.297h26.915v33.686h-26.915zm0 151.383h26.915v33.686h-26.915zm66.328-51.18l21.585 32.068L346.04 252.5zm-105.74 4.662l-21.585-32.068-21.585 32.068z"/><path d="M250 79.844c-13.82 0-25.064 11.244-25.064 25.064S236.18 129.973 250 129.973s25.064-11.244 25.064-25.064S263.82 79.844 250 79.844zm0 40.129c-8.307 0-15.064-6.758-15.064-15.064S241.693 89.844 250 89.844s15.064 6.758 15.064 15.064-6.757 15.065-15.064 15.065zm74.455 100.122a5 5 0 00-5 5V247.5H302.87a5 5 0 00-4.147 7.792l21.585 32.068a4.999 4.999 0 008.294 0l21.585-32.068a5.002 5.002 0 00.267-5.142 5.001 5.001 0 00-4.414-2.65h-16.585v-22.405a5 5 0 00-5-5zm0 55.518L312.263 257.5h24.385l-12.193 18.113zm-148.91 13.955a5 5 0 005-5v-22.406h16.585a5 5 0 004.147-7.792l-21.585-32.067a4.996 4.996 0 00-8.294 0l-21.585 32.067a5.002 5.002 0 00-.267 5.142 5.001 5.001 0 004.414 2.65h16.585v22.406a5 5 0 005 5zm0-55.519l12.192 18.113h-24.385l12.193-18.113zM125.102 221v-5.98c0-2.762 2.238-5 5-5s5 2.238 5 5V221c0 2.762-2.238 5-5 5s-5-2.238-5-5zm230.116-73.703H296.84v-35.824c0-33.69-10.437-66.148-29.699-93.293-.071-.1-.141-.201-.213-.3a163.128 163.128 0 00-4.478-5.982c-.412-.525-.825-1.049-1.244-1.57-.372-.462-.749-.919-1.126-1.377-.367-.445-.732-.892-1.104-1.334-.468-.556-.943-1.105-1.418-1.656-.301-.348-.598-.699-.902-1.045a157.358 157.358 0 00-2.257-2.512l-.139-.155-.581-.632A5.014 5.014 0 00250 0a5 5 0 00-3.68 1.615l-.334.363-.247.269-.09.1a164.77 164.77 0 00-2.309 2.571c-.299.34-.59.685-.886 1.027-.48.556-.961 1.111-1.433 1.673-.37.439-.733.884-1.098 1.327-.378.459-.757.919-1.13 1.382-.42.522-.835 1.048-1.248 1.575-.292.373-.584.745-.873 1.12a158.19 158.19 0 00-1.994 2.644 164.42 164.42 0 00-1.61 2.217l-.204.289c-19.264 27.146-29.704 59.607-29.704 93.3v35.824h-58.378c-10.852 0-19.681 8.829-19.681 19.682v30.354c0 2.762 2.238 5 5 5s5-2.238 5-5v-30.354c0-5.338 4.343-9.682 9.681-9.682h86.76v23.686h-1.051c-10.763 0-19.519 8.756-19.519 19.519s8.756 19.519 19.519 19.519h39.018c10.763 0 19.519-8.756 19.519-19.519s-8.756-19.519-19.519-19.519h-1.051v-23.686h86.76c5.338 0 9.681 4.343 9.681 9.682v155.705c0 5.338-4.343 9.682-9.681 9.682h-86.76V303.68a5 5 0 00-5-5h-26.916a5 5 0 00-5 5v28.686h-86.76c-5.338 0-9.681-4.343-9.681-9.682V237c0-2.762-2.238-5-5-5s-5 2.238-5 5v85.684c0 10.853 8.829 19.682 19.681 19.682h31.24l-7.164 7.163c-13.122 13.123-20.349 30.569-20.349 49.126v35.935a5 5 0 008.535 3.535l46.595-46.596c1.788 7.594 8.53 13.284 16.62 13.458-8.697 16.274-8.956 35.539-.256 52.181l18.867 36.092c2.173 4.157 6.437 6.74 11.128 6.74s8.955-2.583 11.128-6.74l18.867-36.092c8.701-16.642 8.441-35.907-.256-52.181 8.09-.174 14.832-5.864 16.62-13.458l46.595 46.596a4.996 4.996 0 005.448 1.084 5 5 0 003.087-4.619v-35.935c0-18.557-7.227-36.003-20.349-49.126l-7.163-7.163h31.24c10.852 0 19.681-8.829 19.681-19.682V166.979c.002-10.853-8.827-19.682-19.678-19.682zm-95.58-122.405l.001.001a151.186 151.186 0 0113.042 22.678c-6.83 4.137-14.595 6.305-22.682 6.305s-15.852-2.168-22.682-6.305a150.93 150.93 0 0119.09-30.753l.516-.639a149.652 149.652 0 013.076-3.686 152.326 152.326 0 013.061 3.667l.546.675c2.1 2.622 4.115 5.306 6.032 8.057zm19.389 175.609c0 5.249-4.27 9.519-9.519 9.519H230.49c-5.249 0-9.519-4.27-9.519-9.519s4.27-9.519 9.519-9.519h39.018c5.25 0 9.519 4.27 9.519 9.519zm-20.569-19.519h-16.916v-23.686h16.916v23.686zm5-33.685H213.16v-35.824c0-18.9 3.507-37.385 10.184-54.64 8.094 4.623 17.195 7.043 26.656 7.043 9.461 0 18.562-2.42 26.655-7.043a151.283 151.283 0 0110.185 54.64v35.824h-23.382zM241.542 308.68h16.916v23.686h-16.916V308.68zm-83.032 89.975c0-15.886 6.187-30.822 17.419-42.055l14.235-14.234h12.996v35.503l-44.65 44.65v-23.864zm112.624 53.88l-18.867 36.092c-.649 1.239-1.801 1.373-2.267 1.373s-1.618-.134-2.267-1.373l-18.867-36.092c-7.987-15.28-6.762-33.274 3.078-47.529h36.111c9.841 14.255 11.066 32.249 3.079 47.529zm15.706-65.007c0 4.123-3.354 7.478-7.478 7.478h-58.725c-4.123 0-7.478-3.354-7.478-7.478v-45.163h73.68v45.163zm37.231-30.928c11.232 11.233 17.419 26.169 17.419 42.055v23.864l-44.65-44.65v-35.503h12.996l14.235 14.234zm-188.357 6.067V396c0 2.762-2.238 5-5 5s-5-2.238-5-5v-33.333c0-2.762 2.238-5 5-5s5 2.238 5 5zm0 50.666v6.873a5 5 0 11-10 0v-6.873a5 5 0 1110 0zm40.365 34.17v25.291a5 5 0 11-10 0v-25.291a5 5 0 1110 0zm0 42.624V495a5 5 0 11-10 0v-4.873a5 5 0 1110 0zM135.714 440v12.5a5 5 0 11-10 0V440a5 5 0 1110 0zm238.572-77.333V396c0 2.762-2.238 5-5 5s-5-2.238-5-5v-33.333c0-2.762 2.238-5 5-5s5 2.238 5 5zm0 50.666v6.873a5 5 0 11-10 0v-6.873a5 5 0 1110 0zm-40.365 34.17v25.291a5 5 0 11-10 0v-25.291a5 5 0 1110 0zm0 42.624V495a5 5 0 11-10 0v-4.873a5 5 0 1110 0zM374.286 440v12.5a5 5 0 11-10 0V440a5 5 0 1110 0z" fill="#1c1d21"/></svg>