<svg version="1.1" id="Layer_1" xmlns="http://www.w3.org/2000/svg" x="0" y="0" viewBox="0 0 500 500" xml:space="preserve"><path d="M327.037 495H133.705c-6.811 0-12.333-5.522-12.333-12.333V159.194a36.803 36.803 0 0113.06-28.12l95.939-81.009 95.939 81.009a36.803 36.803 0 0113.06 28.12v323.473c.001 6.811-5.521 12.333-12.333 12.333z" fill="#83e1e5"/><path d="M236.541 303.167h-12.339a3.984 3.984 0 01-3.979-3.98V284.6a3.984 3.984 0 013.979-3.98h29.165c7.095 0 12.847-5.754 12.847-12.852 0-7.098-5.752-12.852-12.847-12.852h-8.045v-13.064c0-7.098-5.752-12.852-12.847-12.852s-12.847 5.754-12.847 12.852v13.418c-14.197 2.207-25.099 14.518-25.099 29.33v14.587c0 16.368 13.312 29.684 29.673 29.684h12.339a3.984 3.984 0 013.979 3.98v14.587a3.984 3.984 0 01-3.979 3.98h-29.165c-7.095 0-12.847 5.754-12.847 12.852 0 7.098 5.752 12.852 12.847 12.852h12.252v13.064c0 7.098 5.752 12.852 12.847 12.852s12.847-5.754 12.847-12.852v-14.392c12.088-3.754 20.892-15.046 20.892-28.356v-14.587c0-16.368-13.312-29.684-29.673-29.684z" fill="#fddf7f"/><circle cx="230.371" cy="137.316" r="23.306" fill="#ecf4f7"/><path d="M116.372 248v-8.5a5 5 0 0110 0v8.5a5 5 0 01-10 0zM383.628 70.5v13.724c0 16.382-13.328 29.71-29.71 29.71s-29.709-13.328-29.709-29.71V54.429C324.21 29.926 304.283 10 279.79 10c-22.356 0-40.898 16.604-43.965 38.126l93.711 79.127a41.722 41.722 0 0114.835 31.941v323.473c0 9.558-7.776 17.333-17.334 17.333H133.705c-9.558 0-17.333-7.776-17.333-17.333V269a5 5 0 0110 0v213.667c0 4.044 3.29 7.333 7.333 7.333h193.332c4.044 0 7.334-3.29 7.334-7.333V159.194a31.742 31.742 0 00-11.286-24.3L235.371 60.83v48.631c13.23 2.369 23.306 13.953 23.306 27.854 0 15.608-12.698 28.306-28.306 28.306s-28.306-12.698-28.306-28.306c0-13.901 10.076-25.485 23.306-27.854V60.83l-87.714 74.063a31.742 31.742 0 00-11.286 24.3V213.5a5 5 0 01-10 0v-54.306a41.723 41.723 0 0114.835-31.941l94.64-79.912C229.328 20.668 252.183 0 279.79 0c30.007 0 54.419 24.412 54.419 54.419v29.805c0 10.868 8.842 19.71 19.709 19.71 10.868 0 19.71-8.842 19.71-19.71V70.5a5 5 0 0110 0zm-153.257 48.51c-10.094 0-18.306 8.212-18.306 18.306 0 10.094 8.212 18.306 18.306 18.306 10.094 0 18.306-8.212 18.306-18.306 0-10.094-8.212-18.306-18.306-18.306zM378.628 32a5 5 0 00-5 5v13.065a5 5 0 0010 0V37a5 5 0 00-5-5zM235.52 346.419v-12.548h-11.318c-19.119 0-34.673-15.559-34.673-34.684V284.6c0-15.476 10.527-29.112 25.099-33.333v-9.415c0-9.843 8.006-17.852 17.847-17.852 9.841 0 17.847 8.008 17.847 17.852v8.064h3.045c9.841 0 17.847 8.008 17.847 17.852 0 9.843-8.006 17.852-17.847 17.852h-28.144v12.548h11.318c19.119 0 34.673 15.559 34.673 34.684v14.587c0 14.021-8.255 26.385-20.893 31.832v10.916c0 9.843-8.006 17.852-17.847 17.852-9.841 0-17.847-8.008-17.847-17.852v-8.064h-7.251c-9.841 0-17.847-8.008-17.847-17.852s8.006-17.852 17.847-17.852h28.144zm10-13.568v14.587c0 4.952-4.028 8.98-8.979 8.98h-29.164c-4.327 0-7.847 3.522-7.847 7.852s3.52 7.852 7.847 7.852h12.251a5 5 0 015 5v13.064c0 4.33 3.52 7.852 7.847 7.852s7.847-3.522 7.847-7.852v-14.392a5 5 0 013.517-4.775c10.393-3.227 17.376-12.704 17.376-23.581v-14.587c0-13.61-11.068-24.684-24.673-24.684h-12.339c-4.951 0-8.979-4.029-8.979-8.98V284.6c0-4.952 4.028-8.98 8.979-8.98h29.165c4.327 0 7.847-3.522 7.847-7.852s-3.52-7.852-7.847-7.852h-8.045a5 5 0 01-5-5v-13.064c0-4.33-3.52-7.852-7.847-7.852s-7.847 3.522-7.847 7.852v13.418a4.998 4.998 0 01-4.232 4.94c-11.896 1.85-20.867 12.334-20.867 24.39v14.587c0 13.61 11.068 24.684 24.673 24.684h12.339c4.95 0 8.978 4.028 8.978 8.98z" fill="#1c1d21"/></svg>