<svg width="300" height="106" viewBox="0 0 300 106" fill="none" xmlns="http://www.w3.org/2000/svg"><path d="M50.664 48.4h-28.6l-5.456 13.2H2L29.456 0h14.08L71.08 61.6H56.12l-5.456-13.2zm-4.488-10.824l-9.768-23.584-9.768 23.584h19.536zm45.825 24.728c-3.93 0-7.773-.47-11.528-1.408-3.754-.997-6.746-2.23-8.976-3.696l4.576-9.856c2.112 1.35 4.664 2.464 7.656 3.344 2.992.821 5.926 1.232 8.8 1.232 5.808 0 8.712-1.437 8.712-4.312 0-1.35-.792-2.317-2.376-2.904-1.584-.587-4.018-1.085-7.304-1.496-3.872-.587-7.069-1.261-9.592-2.024-2.522-.763-4.722-2.112-6.6-4.048-1.818-1.936-2.728-4.693-2.728-8.272 0-2.992.851-5.632 2.552-7.92 1.76-2.347 4.283-4.165 7.568-5.456 3.344-1.29 7.275-1.936 11.792-1.936 3.344 0 6.659.381 9.944 1.144 3.344.704 6.102 1.701 8.272 2.992l-4.576 9.768c-4.165-2.347-8.712-3.52-13.64-3.52-2.933 0-5.133.41-6.6 1.232-1.466.821-2.2 1.877-2.2 3.168 0 1.467.792 2.493 2.376 3.08 1.584.587 4.107 1.144 7.568 1.672 3.872.645 7.04 1.35 9.504 2.112 2.464.704 4.606 2.024 6.424 3.96 1.819 1.936 2.728 4.635 2.728 8.096 0 2.933-.88 5.544-2.64 7.832-1.76 2.288-4.341 4.077-7.744 5.368-3.344 1.232-7.333 1.848-11.968 1.848zm46.75 0c-3.93 0-7.773-.47-11.528-1.408-3.754-.997-6.746-2.23-8.976-3.696l4.576-9.856c2.112 1.35 4.664 2.464 7.656 3.344 2.992.821 5.926 1.232 8.8 1.232 5.808 0 8.712-1.437 8.712-4.312 0-1.35-.792-2.317-2.376-2.904-1.584-.587-4.018-1.085-7.304-1.496-3.872-.587-7.069-1.261-9.592-2.024-2.522-.763-4.722-2.112-6.6-4.048-1.818-1.936-2.728-4.693-2.728-8.272 0-2.992.851-5.632 2.552-7.92 1.76-2.347 4.283-4.165 7.568-5.456 3.344-1.29 7.275-1.936 11.792-1.936 3.344 0 6.659.381 9.944 1.144 3.344.704 6.102 1.701 8.272 2.992l-4.576 9.768c-4.165-2.347-8.712-3.52-13.64-3.52-2.933 0-5.133.41-6.6 1.232-1.466.821-2.2 1.877-2.2 3.168 0 1.467.792 2.493 2.376 3.08 1.584.587 4.107 1.144 7.568 1.672 3.872.645 7.04 1.35 9.504 2.112 2.464.704 4.606 2.024 6.424 3.96 1.819 1.936 2.728 4.635 2.728 8.096 0 2.933-.88 5.544-2.64 7.832-1.76 2.288-4.341 4.077-7.744 5.368-3.344 1.232-7.333 1.848-11.968 1.848zm49.918-48.752c7.334 0 12.966 1.76 16.896 5.28 3.931 3.461 5.896 8.712 5.896 15.752V61.6h-12.848v-5.896c-2.581 4.4-7.392 6.6-14.432 6.6-3.637 0-6.805-.616-9.504-1.848-2.64-1.232-4.664-2.933-6.072-5.104-1.408-2.17-2.112-4.635-2.112-7.392 0-4.4 1.643-7.861 4.928-10.384 3.344-2.523 8.478-3.784 15.4-3.784h10.912c0-2.992-.909-5.28-2.728-6.864-1.818-1.643-4.546-2.464-8.184-2.464a23.5 23.5 0 00-7.48 1.232c-2.405.763-4.458 1.819-6.16 3.168l-4.928-9.592c2.582-1.819 5.662-3.227 9.24-4.224a42.08 42.08 0 0111.176-1.496zm-1.056 39.512c2.347 0 4.43-.528 6.248-1.584 1.819-1.115 3.11-2.728 3.872-4.84V41.8h-9.416c-5.632 0-8.448 1.848-8.448 5.544 0 1.76.675 3.168 2.024 4.224 1.408.997 3.315 1.496 5.72 1.496zm65.049-39.512c5.866 0 10.589 1.76 14.168 5.28 3.637 3.52 5.456 8.741 5.456 15.664V61.6h-13.728V36.608c0-3.755-.822-6.541-2.464-8.36-1.643-1.877-4.019-2.816-7.128-2.816-3.462 0-6.219 1.085-8.272 3.256-2.054 2.112-3.08 5.28-3.08 9.504V61.6h-13.728V14.256h13.112V19.8c1.818-1.995 4.077-3.52 6.776-4.576 2.698-1.115 5.661-1.672 8.888-1.672z" fill="#000"/><path d="M289.922 62.304c-2.406 0-4.43-.821-6.072-2.464-1.643-1.643-2.464-3.696-2.464-6.16 0-2.523.821-4.547 2.464-6.072 1.642-1.584 3.666-2.376 6.072-2.376 2.405 0 4.429.792 6.072 2.376 1.642 1.525 2.464 3.55 2.464 6.072 0 2.464-.822 4.517-2.464 6.16-1.643 1.643-3.667 2.464-6.072 2.464z" fill="#D99556"/><path d="M15.677 105.468c-2.782 0-5.304-.598-7.566-1.794-2.236-1.222-4.004-2.899-5.304-5.031C1.533 96.485.896 94.054.896 91.35c0-2.704.637-5.122 1.911-7.254a13.525 13.525 0 015.304-5.031c2.262-1.222 4.797-1.833 7.605-1.833 2.366 0 4.498.416 6.396 1.248 1.924.832 3.536 2.028 4.836 3.588l-4.056 3.744c-1.846-2.132-4.134-3.198-6.864-3.198-1.69 0-3.198.377-4.524 1.131a7.9 7.9 0 00-3.12 3.081c-.728 1.326-1.092 2.834-1.092 4.524s.364 3.198 1.092 4.524a8.174 8.174 0 003.12 3.12c1.326.728 2.834 1.092 4.524 1.092 2.73 0 5.018-1.079 6.864-3.237l4.056 3.744c-1.3 1.586-2.912 2.795-4.836 3.627-1.924.832-4.069 1.248-6.435 1.248zM31.215 77.7h6.317v22.152h13.69V105H31.213V77.7zM72.96 99.15H60.283L57.866 105h-6.474L63.56 77.7h6.24L82.007 105h-6.63l-2.418-5.85zm-1.99-4.797l-4.329-10.452-4.329 10.452h8.658zm22.84 11.115a23.02 23.02 0 01-6.28-.858c-2.002-.598-3.614-1.365-4.835-2.301l2.145-4.758c1.17.858 2.56 1.547 4.172 2.067 1.612.52 3.225.78 4.837.78 1.793 0 3.12-.26 3.977-.78.859-.546 1.288-1.261 1.288-2.145 0-.65-.26-1.183-.78-1.599-.495-.442-1.145-.793-1.95-1.053-.78-.26-1.847-.546-3.198-.858-2.08-.494-3.784-.988-5.11-1.482a8.448 8.448 0 01-3.431-2.379c-.936-1.092-1.404-2.548-1.404-4.368 0-1.586.428-3.016 1.287-4.29.857-1.3 2.144-2.327 3.86-3.081 1.742-.754 3.861-1.131 6.358-1.131 1.742 0 3.445.208 5.109.624 1.664.416 3.12 1.014 4.368 1.794l-1.95 4.797c-2.522-1.43-5.044-2.145-7.566-2.145-1.768 0-3.081.286-3.94.858-.831.572-1.248 1.326-1.248 2.262 0 .936.481 1.638 1.444 2.106.988.442 2.483.884 4.485 1.326 2.08.494 3.783.988 5.109 1.482a8.31 8.31 0 013.393 2.34c.962 1.066 1.443 2.509 1.443 4.329 0 1.56-.442 2.99-1.326 4.29-.858 1.274-2.158 2.288-3.9 3.042-1.743.754-3.862 1.131-6.358 1.131zm24.87 0a23.02 23.02 0 01-6.279-.858c-2.002-.598-3.614-1.365-4.836-2.301l2.145-4.758c1.17.858 2.561 1.547 4.173 2.067 1.612.52 3.224.78 4.836.78 1.794 0 3.12-.26 3.978-.78.858-.546 1.287-1.261 1.287-2.145 0-.65-.26-1.183-.78-1.599-.494-.442-1.144-.793-1.95-1.053-.78-.26-1.846-.546-3.198-.858-2.08-.494-3.783-.988-5.109-1.482a8.448 8.448 0 01-3.432-2.379c-.936-1.092-1.404-2.548-1.404-4.368 0-1.586.429-3.016 1.287-4.29.858-1.3 2.145-2.327 3.861-3.081 1.742-.754 3.861-1.131 6.357-1.131 1.742 0 3.445.208 5.109.624 1.664.416 3.12 1.014 4.368 1.794l-1.95 4.797c-2.522-1.43-5.044-2.145-7.566-2.145-1.768 0-3.081.286-3.939.858-.832.572-1.248 1.326-1.248 2.262 0 .936.481 1.638 1.443 2.106.988.442 2.483.884 4.485 1.326 2.08.494 3.783.988 5.109 1.482a8.31 8.31 0 013.393 2.34c.962 1.066 1.443 2.509 1.443 4.329 0 1.56-.442 2.99-1.326 4.29-.858 1.274-2.158 2.288-3.9 3.042s-3.861 1.131-6.357 1.131zm15.9-27.768h6.318V105h-6.318V77.7zm25.862 27.768c-2.782 0-5.304-.598-7.566-1.794-2.236-1.222-4.004-2.899-5.304-5.031-1.274-2.158-1.911-4.589-1.911-7.293 0-2.704.637-5.122 1.911-7.254a13.525 13.525 0 015.304-5.031c2.262-1.222 4.797-1.833 7.605-1.833 2.366 0 4.498.416 6.396 1.248 1.924.832 3.536 2.028 4.836 3.588l-4.056 3.744c-1.846-2.132-4.134-3.198-6.864-3.198-1.69 0-3.198.377-4.524 1.131a7.9 7.9 0 00-3.12 3.081c-.728 1.326-1.092 2.834-1.092 4.524s.364 3.198 1.092 4.524a8.174 8.174 0 003.12 3.12c1.326.728 2.834 1.092 4.524 1.092 2.73 0 5.018-1.079 6.864-3.237l4.056 3.744c-1.3 1.586-2.912 2.795-4.836 3.627-1.924.832-4.069 1.248-6.435 1.248zm35.552 0a23.02 23.02 0 01-6.279-.858c-2.002-.598-3.614-1.365-4.836-2.301l2.145-4.758c1.17.858 2.561 1.547 4.173 2.067 1.612.52 3.224.78 4.836.78 1.794 0 3.12-.26 3.978-.78.858-.546 1.287-1.261 1.287-2.145 0-.65-.26-1.183-.78-1.599-.494-.442-1.144-.793-1.95-1.053-.78-.26-1.846-.546-3.198-.858-2.08-.494-3.783-.988-5.109-1.482a8.448 8.448 0 01-3.432-2.379c-.936-1.092-1.404-2.548-1.404-4.368 0-1.586.429-3.016 1.287-4.29.858-1.3 2.145-2.327 3.861-3.081 1.742-.754 3.861-1.131 6.357-1.131 1.742 0 3.445.208 5.109.624 1.664.416 3.12 1.014 4.368 1.794l-1.95 4.797c-2.522-1.43-5.044-2.145-7.566-2.145-1.768 0-3.081.286-3.939.858-.832.572-1.248 1.326-1.248 2.262 0 .936.481 1.638 1.443 2.106.988.442 2.483.884 4.485 1.326 2.08.494 3.783.988 5.109 1.482a8.31 8.31 0 013.393 2.34c.962 1.066 1.443 2.509 1.443 4.329 0 1.56-.442 2.99-1.326 4.29-.858 1.274-2.158 2.288-3.9 3.042s-3.861 1.131-6.357 1.131zM236.932 77.7V105h-6.318V93.807h-12.402V105h-6.318V77.7h6.318v10.764h12.402V77.7h6.318zm19.68 27.768c-2.834 0-5.395-.611-7.683-1.833-2.262-1.222-4.043-2.899-5.343-5.031-1.274-2.158-1.911-4.576-1.911-7.254s.637-5.083 1.911-7.215c1.3-2.158 3.081-3.848 5.343-5.07 2.288-1.222 4.849-1.833 7.683-1.833 2.834 0 5.382.611 7.644 1.833 2.262 1.222 4.043 2.912 5.343 5.07 1.3 2.132 1.95 4.537 1.95 7.215s-.65 5.096-1.95 7.254c-1.3 2.132-3.081 3.809-5.343 5.031-2.262 1.222-4.81 1.833-7.644 1.833zm0-5.382c1.612 0 3.068-.364 4.368-1.092a7.977 7.977 0 003.042-3.12c.754-1.326 1.131-2.834 1.131-4.524s-.377-3.198-1.131-4.524a7.71 7.71 0 00-3.042-3.081c-1.3-.754-2.756-1.131-4.368-1.131-1.612 0-3.068.377-4.368 1.131a7.975 7.975 0 00-3.081 3.081c-.728 1.326-1.092 2.834-1.092 4.524s.364 3.198 1.092 4.524a8.256 8.256 0 003.081 3.12c1.3.728 2.756 1.092 4.368 1.092zM288.115 77.7c2.418 0 4.511.403 6.279 1.209 1.794.806 3.172 1.95 4.134 3.432.962 1.482 1.443 3.237 1.443 5.265 0 2.002-.481 3.757-1.443 5.265-.962 1.482-2.34 2.626-4.134 3.432-1.768.78-3.861 1.17-6.279 1.17h-5.499V105h-6.318V77.7h11.817zm-.351 14.625c1.898 0 3.341-.403 4.329-1.209.988-.832 1.482-2.002 1.482-3.51 0-1.534-.494-2.704-1.482-3.51-.988-.832-2.431-1.248-4.329-1.248h-5.148v9.477h5.148z" opacity=".6" fill="#000"/></svg>